# xmcd CD database file
#
# Track frame offsets:
#	150
#	202227
#	326942
#
# Disc length: 4721 seconds
#
# Revision: 8
# Processed by: cddbd v1.5.2PL0 Copyright (c) Steve Scherf et al.
# Submitted via: CDex 1.70beta2
#
DISCID=2e126f03
DTITLE=Keith Jarrett - La Scala
DYEAR=1995
DGENRE=Jazz
TTITLE0=La Scala, Part I
TTITLE1=La Scala, Part II
TTITLE2=Over The Rainbow
EXTD=Recorded live, 2/13/95, at La Scala, Milan, Italy YEAR: 1995
EXTT0=
EXTT1=
EXTT2=
PLAYORDER=
